<svg xmlns="http://www.w3.org/2000/svg" viewBox="0 0 48 48" width="48" height="48">
  <defs>
    <linearGradient id="mm-grad" x1="0" y1="0" x2="1" y2="1">
      <stop offset="0" stop-color="#34d399"/>
      <stop offset="0.55" stop-color="#10b981"/>
      <stop offset="1" stop-color="#0d9488"/>
    </linearGradient>
  </defs>
  <path fill="url(#mm-grad)" d="M24 3C15.7 3 9 9.7 9 18c0 10.5 15 27 15 27s15-16.5 15-27C39 9.7 32.3 3 24 3z"/>
  <circle cx="24" cy="18" r="9" fill="#ffffff"/>
  <path d="M24 12.5v11M26.7 15.2c0-1.3-1.2-2.2-2.7-2.2s-2.7.9-2.7 2.1c0 1.2 1 1.8 2.7 2.1 1.7.3 2.7.9 2.7 2.1 0 1.2-1.2 2.2-2.7 2.2s-2.7-.9-2.7-2.2" stroke="#0d9488" stroke-width="1.6" stroke-linecap="round" stroke-linejoin="round"/>
</svg>
